<svg xmlns="http://www.w3.org/2000/svg" fill="none" viewBox="0 0 50 50"><g clip-path="url(#a)"><path fill="#AAA" d="M7.338 16.096v20.852l-2.665 1.145a1.021 1.021 0 0 1-.892-.045.875.875 0 0 1-.318-.3.76.76 0 0 1-.115-.399V17.81"/><path fill="url(#b)" d="m46.605 14.688 1.079-.516c1.78-.853 1.78-2.248 0-3.101L27.205 1.265a5.068 5.068 0 0 0-2.184-.49c-.762 0-1.512.169-2.184.49L2.36 11.071c-1.78.853-1.78 2.248 0 3.1l19.425 9.302c1.78.853 4.694.853 6.475 0l1.08-.517 17.266-8.268Zm-12.437-2.727-9.285 4.135-9.286-4.299 9.286-3.968 9.285 4.132Z"/><path fill="url(#c)" d="m27.102 48.113 3.549-1.849a.883.883 0 0 0 .338-.303.76.76 0 0 0 .124-.413l-.033-16.225-3.977.166v18.624Z"/><path fill="url(#d)" d="m4.718 17.171 16.557 8.35-.185 7.605-16.372-8.019v-7.936Z"/><path fill="#DDD" d="M1.018 13.199v23.56l2.62 1.352a1.01 1.01 0 0 0 .925 0 .883.883 0 0 0 .339-.303.76.76 0 0 0 .124-.413V29.52c0-.682.534-.96 1.196-.622l13.628 6.957c.666.34 1.21 1.176 1.21 1.864v8.906a.76.76 0 0 0 .123.414c.082.125.198.23.339.302l3.546 1.827v-23.56c0-.682-.542-1.519-1.203-1.86L2.22 12.577c-.661-.343-1.203-.061-1.203.621Zm18.839 19.109L6.228 25.276c-.664-.343-1.202-1.175-1.202-1.86V18.81c0-.686.538-.963 1.202-.62l13.629 7.032c.664.343 1.203 1.176 1.203 1.86v4.607c0 .684-.539.965-1.203.619Z"/><path fill="url(#e)" d="m36.538 38.334 8.742-20.408.887 4.305-5.981 15.74c-.148.39-1.627.992-2.076.694l-1.572-.33Z"/><path fill="url(#f)" d="m37.093 34.284 8.325-20.337-17.113 8.763 8.788 11.574Z"/><path fill="#004574" d="m26.27 23.747 2.072-1.069c.451-.232.864-.185 1.07.123l7.678 11.483 7.677-19.41c.207-.52.62-.992 1.07-1.226l2.078-1.07c.66-.34 1.203-.062 1.203.62v23.084a.76.76 0 0 1-.124.413.882.882 0 0 1-.339.303L46.5 38.11a1.01 1.01 0 0 1-.926 0 .882.882 0 0 1-.338-.303.76.76 0 0 1-.124-.414l.037-16.318-6.413 16.875c-.201.53-.62 1.018-1.08 1.255l-1.24.641c-.463.24-.886.183-1.086-.144l-6.294-10.313.039 17.236a.76.76 0 0 1-.124.415.882.882 0 0 1-.339.303l-3.544 1.825v-23.56c0-.683.54-1.52 1.202-1.86Z"/><path stroke="#000" stroke-miterlimit="10" stroke-width="2" d="M23.896 49.641 1.323 38.028c-.716-.372-1.23-.94-1.23-1.678V12.872c0-.738.394-1.614 1.11-1.984L20.535 1.63C23.395.15 25.16-.589 28.027.885l20.906 10.086c.715.369.944 1.195.945 1.934l.03 23.28a1.9 1.9 0 0 1-.309 1.034 2.205 2.205 0 0 1-.845.757L26.209 49.64c-.351.182-.75.278-1.156.278-.406 0-.805-.095-1.157-.276Z"/><path fill="#fff" d="m25.067 24.529-24.05 12.23.006-24.796 24.044 12.566ZM49.118 36.764l-24.05 12.395.005-24.796 24.045 12.4ZM41.468 10.02l-4.412 1.884 4.412 2.043 4.412-1.964-4.412-1.964ZM8.075 10.02l-4.411 1.884 4.411 2.043 4.413-1.964-4.413-1.964ZM24.91 1.256 20.5 3.141l4.411 2.043 4.413-1.964-4.413-1.964ZM24.91 19.03 20.5 20.915l4.411 2.043 4.413-1.964-4.413-1.964ZM12.857 11.92l12.012 5.582L37 12.134 24.869 6.767 12.858 11.92Z" opacity=".2"/><path fill="#fff" d="M23.757 1.317 1.295 11.963 24.882 7.83l24.023 4.304L26.06 1.323a2.707 2.707 0 0 0-1.151-.258 2.71 2.71 0 0 0-1.153.252Z" opacity=".2"/></g><defs><linearGradient id="b" x1="1.023" x2="49.02" y1="12.444" y2="12.444" gradientUnits="userSpaceOnUse"><stop stop-color="#DDD"/><stop offset=".25" stop-color="#CCC"/><stop offset=".35" stop-color="#CACBCB"/><stop offset=".38" stop-color="#C3C5C6"/><stop offset=".41" stop-color="#B8BCBE"/><stop offset=".43" stop-color="#A7AFB2"/><stop offset=".45" stop-color="#919EA3"/><stop offset=".46" stop-color="#758990"/><stop offset=".47" stop-color="#557079"/><stop offset=".49" stop-color="#30535F"/><stop offset=".5" stop-color="#012F3F"/><stop offset="1"/></linearGradient><linearGradient id="c" x1="27.102" x2="31.11" y1="38.719" y2="38.719" gradientUnits="userSpaceOnUse"><stop stop-color="#012F3F"/><stop offset=".6" stop-color="#012D3D"/><stop offset="1"/></linearGradient><linearGradient id="d" x1="4.718" x2="21.275" y1="25.149" y2="25.149" gradientUnits="userSpaceOnUse"><stop offset=".01" stop-color="#CCC"/><stop offset="1" stop-color="#AAA"/></linearGradient><linearGradient id="e" x1="36.538" x2="46.167" y1="28.335" y2="28.335" gradientUnits="userSpaceOnUse"><stop offset=".48" stop-color="#012F3F"/><stop offset="1"/></linearGradient><radialGradient id="f" cx="0" cy="0" r="1" gradientTransform="matrix(10.0659 0 0 8.99606 36.861 24.115)" gradientUnits="userSpaceOnUse"><stop stop-color="#012F3F"/><stop offset="1"/></radialGradient><clipPath id="a"><path fill="#fff" d="M0 0h50v50H0z"/></clipPath></defs></svg>