<svg viewBox="0 0 50 50" fill="none" xmlns="http://www.w3.org/2000/svg">
<g clip-path="url(#clip0)">
<path d="M7.33806 16.0964V36.9481L4.67314 38.0931C4.53223 38.1536 4.37646 38.1811 4.22039 38.1733C4.06431 38.1654 3.91302 38.1223 3.78064 38.048C3.64826 37.9737 3.53911 37.8706 3.46339 37.7484C3.38766 37.6261 3.34783 37.4888 3.34761 37.349V17.8102" fill="#AAAAAA"/>
<path d="M46.6053 14.6885L47.6838 14.1718C49.4644 13.3187 49.4644 11.924 47.6838 11.0709L27.2052 1.26549C26.5335 0.943905 25.7833 0.775635 25.0213 0.775635C24.2593 0.775635 23.5091 0.943905 22.8374 1.26549L2.35877 11.0709C0.578143 11.924 0.578143 13.3187 2.35877 14.1718L21.7838 23.4729C23.5644 24.3261 26.4782 24.3261 28.2588 23.4729L29.3383 22.9562L46.6053 14.6885ZM34.1677 11.9612L24.8825 16.0963L15.5974 11.7975L24.8825 7.82942L34.1677 11.9612Z" fill="url(#paint0_linear)"/>
<path d="M27.1025 48.1134L30.6508 46.2641C30.7914 46.1915 30.9082 46.0872 30.9894 45.9615C31.0706 45.8358 31.1133 45.6933 31.1133 45.5482L31.08 29.3235L27.1025 29.4888V48.1134Z" fill="url(#paint1_linear)"/>
<path d="M4.71751 17.1711L21.275 25.5207L21.09 33.1263L4.71751 25.1074V17.1711Z" fill="url(#paint2_linear)"/>
<path d="M1.0175 13.199V36.7597L3.63803 38.1105C3.77865 38.1831 3.93815 38.2213 4.10052 38.2213C4.26289 38.2213 4.4224 38.1831 4.56302 38.1105C4.70364 38.0379 4.82041 37.9336 4.9016 37.8079C4.98278 37.6822 5.02553 37.5397 5.02553 37.3946V29.5203C5.02553 28.8383 5.56018 28.5597 6.22156 28.8978L19.8505 35.8545C20.5165 36.1951 21.0595 37.0308 21.0595 37.7186V46.6254C21.0595 46.7705 21.1022 46.9131 21.1834 47.0388C21.2646 47.1644 21.3814 47.2688 21.522 47.3413L25.0675 49.1683V25.6076C25.0675 24.9256 24.5264 24.089 23.865 23.7475L2.22 12.5789C1.55863 12.235 1.0175 12.5169 1.0175 13.199ZM19.857 32.3079L6.22803 25.2761C5.56388 24.933 5.02553 24.1005 5.02553 23.4152V18.8097C5.02553 18.1244 5.56388 17.8474 6.22803 18.1897L19.857 25.2224C20.5211 25.5646 21.0595 26.3979 21.0595 27.0824V31.6888C21.0595 32.3733 20.5211 32.6543 19.857 32.3079Z" fill="#DDDDDD"/>
<path d="M36.5376 38.3343L45.2797 17.9258L46.1668 22.2312L40.1858 37.9714C40.0378 38.3616 38.5587 38.9634 38.1101 38.665L36.5376 38.3343Z" fill="url(#paint3_linear)"/>
<path d="M37.0926 34.2836L45.4176 13.947L28.305 22.71L37.0926 34.2836Z" fill="url(#paint4_radial)"/>
<path d="M26.27 23.7474L28.342 22.6785C28.7934 22.4462 29.206 22.4933 29.4123 22.8009L37.0898 34.2836L44.7673 14.8737C44.9736 14.3537 45.3861 13.8817 45.8375 13.6477L47.9151 12.578C48.5755 12.2374 49.1176 12.516 49.1176 13.198V36.2817C49.1176 36.4268 49.0748 36.5694 48.9936 36.6951C48.9125 36.8207 48.7957 36.9251 48.6551 36.9976L46.4998 38.1104C46.3591 38.183 46.1994 38.2212 46.0369 38.2211C45.8743 38.2211 45.7147 38.1827 45.574 38.11C45.4333 38.0372 45.3166 37.9326 45.2356 37.8067C45.1545 37.6808 45.112 37.5381 45.1123 37.3928L45.1493 21.0747L38.7363 37.95C38.5346 38.4807 38.1156 38.9676 37.6559 39.2049L36.4154 39.8464C35.9529 40.0853 35.5302 40.0291 35.3304 39.7018L29.0358 29.3888L29.0746 46.6253C29.075 46.7707 29.0324 46.9136 28.9512 47.0396C28.87 47.1656 28.753 47.2702 28.6121 47.3429L25.0675 49.1682V25.6075C25.0675 24.9255 25.6087 24.0888 26.27 23.7474Z" fill="#004574"/>
<path d="M23.8965 49.6411L1.32277 38.0277C0.606815 37.6557 0.092514 37.0886 0.092514 36.3503V12.8723C0.092514 12.134 0.48749 11.2578 1.20252 10.8882L20.535 1.62927C23.3951 0.149488 25.16 -0.588748 28.0275 0.885244L48.9326 10.9709C49.6485 11.3396 49.877 12.1663 49.8779 12.9045L49.9075 36.185C49.9081 36.5478 49.8018 36.9044 49.5994 37.2188C49.3969 37.5333 49.1053 37.7946 48.754 37.9764L26.209 49.6394C25.8576 49.8211 25.4589 49.9168 25.053 49.9171C24.6471 49.9174 24.2482 49.8222 23.8965 49.6411V49.6411Z" stroke="black" stroke-width="2" stroke-miterlimit="10"/>
<path opacity="0.2" d="M25.0675 24.5286L1.0175 36.7587L1.02305 11.9629L25.0675 24.5286Z" fill="white"/>
<path opacity="0.2" d="M49.1176 36.7637L25.0675 49.1591L25.0731 24.3633L49.1176 36.7637Z" fill="white"/>
<path opacity="0.2" d="M41.4678 10.0193L37.0564 11.9041L41.4678 13.9469L45.88 11.9827L41.4678 10.0193Z" fill="white"/>
<path opacity="0.2" d="M8.07525 10.0193L3.66393 11.9041L8.07525 13.9469L12.4875 11.9827L8.07525 10.0193Z" fill="white"/>
<path opacity="0.2" d="M24.9102 1.25635L20.4989 3.14121L24.9102 5.18396L29.3225 3.21974L24.9102 1.25635Z" fill="white"/>
<path opacity="0.2" d="M24.9102 19.0303L20.4989 20.9151L24.9102 22.9579L29.3225 20.9937L24.9102 19.0303Z" fill="white"/>
<path opacity="0.2" d="M12.8575 11.9199L24.8687 17.5017L37 12.134L24.8687 6.76709L12.8575 11.9199Z" fill="white"/>
<path opacity="0.2" d="M23.7568 1.31693L1.29501 11.9631L24.8825 7.82961L48.9048 12.1342L26.061 1.32271C25.7064 1.15443 25.3112 1.06596 24.9097 1.06495C24.5082 1.06394 24.1125 1.15043 23.7568 1.31693Z" fill="white"/>
</g>
<defs>
<linearGradient id="paint0_linear" x1="1.02307" y1="12.444" x2="49.0195" y2="12.444" gradientUnits="userSpaceOnUse">
<stop stop-color="#DDDDDD"/>
<stop offset="0.25" stop-color="#CCCCCC"/>
<stop offset="0.35" stop-color="#CACBCB"/>
<stop offset="0.38" stop-color="#C3C5C6"/>
<stop offset="0.41" stop-color="#B8BCBE"/>
<stop offset="0.43" stop-color="#A7AFB2"/>
<stop offset="0.45" stop-color="#919EA3"/>
<stop offset="0.46" stop-color="#758990"/>
<stop offset="0.47" stop-color="#557079"/>
<stop offset="0.49" stop-color="#30535F"/>
<stop offset="0.5" stop-color="#012F3F"/>
<stop offset="1"/>
</linearGradient>
<linearGradient id="paint1_linear" x1="27.1025" y1="38.7188" x2="31.1096" y2="38.7188" gradientUnits="userSpaceOnUse">
<stop stop-color="#012F3F"/>
<stop offset="0.6" stop-color="#012D3D"/>
<stop offset="1"/>
</linearGradient>
<linearGradient id="paint2_linear" x1="4.71751" y1="25.1487" x2="21.275" y2="25.1487" gradientUnits="userSpaceOnUse">
<stop offset="0.01" stop-color="#CCCCCC"/>
<stop offset="1" stop-color="#AAAAAA"/>
</linearGradient>
<linearGradient id="paint3_linear" x1="36.5376" y1="28.3355" x2="46.1668" y2="28.3355" gradientUnits="userSpaceOnUse">
<stop offset="0.48" stop-color="#012F3F"/>
<stop offset="1"/>
</linearGradient>
<radialGradient id="paint4_radial" cx="0" cy="0" r="1" gradientUnits="userSpaceOnUse" gradientTransform="translate(36.8613 24.1153) scale(10.0659 8.99606)">
<stop stop-color="#012F3F"/>
<stop offset="1"/>
</radialGradient>
<clipPath id="clip0">
<rect width="50" height="50" fill="white"/>
</clipPath>
</defs>
</svg>
