<svg xmlns="http://www.w3.org/2000/svg" width="450" height="253" fill="none"><path fill="#E6E6E6" d="M318.469 126.687s1.054-3.162 1.054-5.036c0-1.874-2.554-1.781-2.554 0 0 1.78 1.054 5.036 1.054 5.036.047.328.375.328.446 0Z"/><path fill="#666" d="M318.234 104.175a.63.63 0 0 0 .633-.632v-2.062a.63.63 0 0 0-.633-.632.63.63 0 0 0-.632.632v2.062a.63.63 0 0 0 .632.632Z"/><path fill="#333" d="M316.965 121.638h2.555v-19.022h-2.555v19.022Z"/><path stroke="#E6E6E6" stroke-miterlimit="10" stroke-width="3" d="M319.5 104.62h-3.352v8.879"/><path fill="#666" d="M318.141 114.248a.57.57 0 0 0 .562-.562v-6.747a.57.57 0 0 0-.562-.562.57.57 0 0 0-.563.562v6.747c.024.328.258.562.563.562Z"/><path fill="#333" d="M318.562 126.359c-.07.188-.093.305-.093.305-.071.351-.399.351-.469 0 0 0-.047-.117-.094-.305h.656Z"/><path fill="#BDCCD4" d="M327.633 96.655h-6.422v31.251h6.422v-31.25Z"/><path fill="#A8BDC6" d="M327.609 96.655h-1.992v31.251h1.992v-31.25Z"/><path stroke="#7F99A5" stroke-miterlimit="10" d="M322.055 98.412h2.109M322.055 107.361h2.109M322.055 102.887h1.476M322.055 99.302h.843M322.055 100.193h.843M322.055 101.083h.843M322.055 101.996h.843M322.055 103.777h.843M322.055 104.667h.843M322.055 105.557h.843M322.055 106.471h.843M322.055 116.403h2.109M322.055 111.929h1.476M322.055 108.345h.843M322.055 109.235h.843M322.055 110.125h.843M322.055 111.039h.843M322.055 112.819h.843M322.055 113.709h.843M322.055 114.6h.843M322.055 115.513h.843M322.055 125.446h2.109M322.055 120.971h1.476M322.055 117.387h.843M322.055 118.277h.843M322.055 119.168h.843M322.055 120.081h.843M322.055 121.862h.843M322.055 122.752h.843M322.055 123.642h.843M322.055 124.556h.843"/><path fill="#FFC06C" d="M329.859 103.261h-2.789v22.443h2.789v-22.443Z"/><path fill="#E6E6E6" d="M329.953 101.153h-2.883v2.108h2.883v-2.108Z"/><path fill="#C1272D" d="M329.953 101.153h-2.883v-.937c0-.515 0-.937.586-.937h1.664c.633 0 .633.469.633 1.031v.843Z"/><path fill="#FFF0B3" d="m328.5 129.311-1.43-3.607h2.883l-1.453 3.607Z"/><path fill="#603813" d="M329.227 127.507h-1.454l.727 1.804.727-1.804Z"/><path fill="#999" d="M331.242 135.613h-17.414v-20.756a1.2 1.2 0 0 1 1.195-1.194h15.024a1.2 1.2 0 0 1 1.195 1.194v20.756Z"/><path fill="#666" d="M331.242 117.083h-17.414v1.874h17.414v-1.874ZM331.242 121.37h-17.414v1.874h17.414v-1.874Z"/><path fill="#C13A3A" d="m113.039 131.443 2.086-.656-9.328-37.974 31.219-21.528-1.243-1.804-32.531 22.442 9.797 39.52Z"/><path fill="#C13A3A" d="m117.258 133.083 2.086-.656-9.328-37.974 31.218-21.528-1.242-1.804-32.531 22.442 9.797 39.52Z"/><path fill="#C13A3A" d="M132.774 65.124c-1.454 2.366-.727 5.482 1.64 6.934l4.289 2.647L144 66.131l-4.289-2.647c-2.367-1.452-5.484-.726-6.937 1.64Z"/><path fill="#F2F2F2" d="M154.209 78.98a4.149 4.149 0 0 0-7.061-4.354 4.145 4.145 0 0 0 1.352 5.707 4.15 4.15 0 0 0 5.709-1.352Z"/><path fill="#E24B4B" d="m144.469 89.16-.071-.048-5.695-14.407L144 66.131l15.352-1.265.07.047-14.953 24.246ZM107.227 97.311a4.288 4.288 0 0 0 4.289-4.287 4.288 4.288 0 0 0-4.289-4.287 4.288 4.288 0 1 0 0 8.574Z"/><path fill="#C13A3A" d="M107.227 94.969a1.945 1.945 0 1 0 0-3.89 1.945 1.945 0 0 0 0 3.89Z"/><path fill="#E24B4B" d="M106.523 135.613h19.125v-1.734a3.88 3.88 0 0 0-3.89-3.889h-11.344a3.88 3.88 0 0 0-3.891 3.889v1.734Z"/><path fill="#BCA184" d="M147.937 130.623a4.415 4.415 0 0 1-4.406-4.404c0-2.436 1.992-4.404 4.406-4.404a4.415 4.415 0 0 1 4.407 4.404c.023 2.413-1.969 4.404-4.407 4.404Zm0-6.981a2.56 2.56 0 0 0-2.554 2.553 2.56 2.56 0 0 0 2.554 2.554 2.56 2.56 0 0 0 2.555-2.554 2.545 2.545 0 0 0-2.555-2.553Z"/><path fill="#C7B299" d="M143.883 135.87h-6.399a3.895 3.895 0 0 1-3.89-3.888v-11.057a.74.74 0 0 1 .75-.75h12.633a.74.74 0 0 1 .75.75v11.057c.046 2.155-1.688 3.888-3.844 3.888Z"/><path fill="#BCA184" d="M147 120.175h-2.672a.74.74 0 0 1 .75.75v11.057c0 2.131-1.711 3.888-3.867 3.888h2.672c2.133 0 4.008-1.733 4.008-3.888v-11.057c0-.422-.469-.75-.891-.75Z"/><path fill="#E6E6E6" d="M137.484 118.207a.74.74 0 0 1-.75-.749v-4.006a.74.74 0 0 1 .75-.75.74.74 0 0 1 .75.75v4.006a.74.74 0 0 1-.75.749ZM140.859 118.207a.74.74 0 0 1-.75-.749v-7.637a.74.74 0 0 1 .75-.75.74.74 0 0 1 .75.75v7.637c-.023.421-.351.749-.75.749ZM144.211 118.207a.74.74 0 0 1-.75-.749v-5.482a.74.74 0 0 1 .75-.75.74.74 0 0 1 .75.75v5.482c-.023.421-.352.749-.75.749Z"/><path fill="#E24B4B" d="M215.297 163.7h-42.492a4.61 4.61 0 0 1-4.617-4.615v-18.623a4.61 4.61 0 0 1 4.617-4.615h42.492a4.61 4.61 0 0 1 4.617 4.615v18.623c-.023 2.554-2.086 4.615-4.617 4.615ZM215.297 129.428h-42.492a4.61 4.61 0 0 1-4.617-4.615V106.19a4.61 4.61 0 0 1 4.617-4.615h42.492a4.61 4.61 0 0 1 4.617 4.615v18.623c-.023 2.554-2.086 4.615-4.617 4.615Z"/><path fill="#333" d="M199.594 166.254h-11.11v4.006h11.11v-4.006Z"/><path fill="#333" d="M213.469 166.652h-38.836a1.47 1.47 0 0 1-1.477-1.476c0-.82.656-1.476 1.477-1.476h38.836c.82 0 1.476.656 1.476 1.476-.023.82-.679 1.476-1.476 1.476Z"/><path fill="#CCC" d="M196.734 170.26h-5.414v17.265h5.414V170.26Z"/><path fill="#CCC" d="M172.828 190.874v11.784h4.031v-7.731a3.35 3.35 0 0 1 3.352-3.35h27.68a3.35 3.35 0 0 1 3.351 3.35v7.731h4.031v-11.784a3.35 3.35 0 0 0-3.351-3.349H176.18a3.35 3.35 0 0 0-3.352 3.349Z"/><path fill="#333" d="M199.594 183.519h-11.11v4.006h11.11v-4.006Z"/><path fill="#CCC" d="M172.828 190.874v11.784h4.031v-7.731a3.35 3.35 0 0 1 3.352-3.35h27.68a3.35 3.35 0 0 1 3.351 3.35v7.731h4.031v-11.784a3.35 3.35 0 0 0-3.351-3.349H176.18a3.35 3.35 0 0 0-3.352 3.349Z"/><path fill="#CCC" d="M183.375 190.874v11.784h4.031v-7.731a3.35 3.35 0 0 1 3.352-3.35h6.586a3.35 3.35 0 0 1 3.351 3.35v7.731h4.032v-11.784a3.35 3.35 0 0 0-3.352-3.349H186.75a3.355 3.355 0 0 0-3.375 3.349Z"/><path fill="#333" d="M174.703 206.218a3.561 3.561 0 1 0-3.562-3.56 3.561 3.561 0 0 0 3.562 3.56ZM185.555 206.218a3.561 3.561 0 1 0 0-7.121 3.562 3.562 0 1 0 0 7.121ZM202.641 206.218a3.561 3.561 0 1 0 0-7.121 3.562 3.562 0 1 0 0 7.121ZM213.492 206.218a3.561 3.561 0 1 0-3.562-3.56 3.561 3.561 0 0 0 3.562 3.56ZM217.406 145.03h-38.133v6.957h38.133v-6.957Z"/><path fill="#F69B76" d="M184.758 96.398h19.711c4.383 0 7.945 3.56 7.945 7.941v40.667h-35.625v-40.643c.024-4.405 3.563-7.965 7.969-7.965Z"/><path fill="#E88D6D" d="m175.992 108.345 4.383-1.195s1.102 9.558 6.703 14.267c2.438 2.061 5.11 1.803 8.133 1.639 7.453-.398 17.18-3.514 17.18-3.514l-.047 16.141-35.531-.047-.821-27.291Z"/><path fill="#F69B76" d="M173.273 99.256s4.829-2.741 11.485-2.858c4.242-.07-6.492 6.489-6.492 6.489l-4.993-3.631ZM204.797 96.538s8.531-.656 10.758 3.093c2.015 3.349-4.172 5.223-4.172 5.223l-6.586-8.316Z"/><path fill="#754C24" d="m230.18 197.012-2.391 9.136h20.133s-.703-4.217-5.367-5.036c-4.641-.844-8.578 1.803-8.578 1.803l.234-5.903h-4.031Z"/><path fill="#754C24" d="m210.961 197.012-2.391 9.136h20.133s-.703-4.217-5.367-5.036c-4.641-.844-8.578 1.803-8.578 1.803l.234-5.903h-4.031Z"/><path fill="#333" d="m229.172 149.809-30.656-3.21-2.063 6.7c-.773 2.554.633 5.248 3.188 6.021l27.773 1.804-.914 36.567h10.899l1.312-37.223c-.375-5.318.258-8.153-6.07-10.167l-3.469-.492Z"/><path fill="#4D4D4D" d="m211.688 149.809-32.485-3.21-.258 6.7c-.211 3.303.633 5.248 3.188 6.021l27.773 1.804-.914 36.567h10.899l1.312-37.223c-.375-5.318.258-8.153-6.07-10.167l-3.445-.492Z"/><path fill="#8C6239" d="M343.852 143.367H106.617a3.87 3.87 0 0 1-3.867-3.866 3.87 3.87 0 0 1 3.867-3.865h237.258a3.87 3.87 0 0 1 3.867 3.865 3.89 3.89 0 0 1-3.89 3.866Z"/><path fill="#754C24" d="M303.281 209.217h-14.437v3.467h14.437v-3.467ZM343.219 209.217h-14.438v3.467h14.438v-3.467Z"/><path fill="#8C6239" d="M288.725 209.234h54.493v-65.85h-54.493v65.85Z"/><path fill="#754C24" d="M121.031 209.217h-14.437v3.467h14.437v-3.467ZM160.969 209.217h-14.438v3.467h14.438v-3.467Z"/><path fill="#8C6239" d="M106.486 209.234h54.492v-65.85h-54.492v65.85Z"/><path fill="#754C24" d="M343.219 143.367H106.477v3.467h236.742v-3.467Z"/><path fill="#F69B76" d="M218.062 134.91c-2.367.351-4.57-1.265-4.921-3.608l-4.336-28.275c-.352-2.366 1.265-4.568 3.609-4.92 2.367-.35 4.43 2.578 5.18 6.021l4.078 25.862a4.285 4.285 0 0 1-3.61 4.92Z"/><path fill="#F69B76" d="M203.297 132.193c-.399-2.343 1.172-4.592 3.516-4.99l23.976-4.123 1.477 8.527-23.977 4.123c-2.344.398-4.594-1.195-4.992-3.537Z"/><path fill="#F8C09D" d="M232.055 130.623s2.039 0 4.664.398c2.625.398 2.929.445 3.75.445.82 0 1.453-1.593-.586-2.061-2.039-.469-1.594-.844-.539-.797 1.078.047 2.226.328 3.398 1.429 1.172 1.101 2.719 1.523 2.86.281.14-1.241-1.032-1.71-1.032-1.71s1.453.258 1.5-.82c.047-1.077-1.172-2.131-1.898-2.623 0 0 .445-1.218-1.031-1.593-1.453-.398-3.891-1.453-5.555-1.663-1.664-.188-6.469 3.209-6.469 3.209l.938 5.505Z"/><path fill="#F69B76" d="M180.281 135.613c-2.367.351-4.57-1.265-4.922-3.608l-4.336-28.275c-.351-2.366 1.266-4.568 3.61-4.92 2.367-.35 4.57 1.266 4.922 3.608l4.336 28.275a4.286 4.286 0 0 1-3.61 4.92Z"/><path fill="#F69B76" d="M176.039 132.193c-.398-2.343 1.172-4.592 3.516-4.99l23.976-4.123 1.477 8.527-23.977 4.123c-2.343.398-4.593-1.195-4.992-3.537Z"/><path fill="#F8C09D" d="M204.797 130.623s2.039 0 4.664.398c2.625.398 2.93.445 3.75.445.82 0 1.453-1.593-.586-2.061-2.039-.469-1.594-.844-.539-.797 1.078.047 2.227.328 3.398 1.429 1.172 1.101 2.719 1.523 2.86.281.14-1.265-1.031-1.71-1.031-1.71s1.453.258 1.499-.82c.047-1.077-1.171-2.131-1.898-2.623 0 0 .445-1.218-1.031-1.593-1.453-.398-3.891-1.453-5.555-1.663-1.664-.188-6.469 3.209-6.469 3.209l.938 5.505Z"/><path fill="#333" d="M286.523 135.706h-29.718a1.62 1.62 0 0 1-1.617-1.616v-.187a1.62 1.62 0 0 1 1.617-1.617h29.718a1.62 1.62 0 0 1 1.618 1.617v.187a1.62 1.62 0 0 1-1.618 1.616ZM305.93 124.696h-68.555a1.89 1.89 0 0 1-1.898-1.897V81.077a1.89 1.89 0 0 1 1.898-1.897h68.555a1.89 1.89 0 0 1 1.898 1.897V122.8c0 1.03-.844 1.897-1.898 1.897Z"/><path fill="#4D4D4D" d="M237.656 124.579V82.858c0-1.055.867-1.804 1.899-1.804h68.414c-.047-.937-.867-1.874-1.899-1.874h-68.554c-1.055 0-1.993.843-1.993 1.897V122.8c0 1.054.938 1.827 1.993 1.827h.14c.024 0 0 0 0-.047ZM279.844 115.958h-16.336v16.328h16.336v-16.328Z"/><path fill="#333" d="M249.914 135.706h-43.875a1.62 1.62 0 0 1-1.617-1.616v-.211c0-.89.726-1.616 1.617-1.616h43.875a1.62 1.62 0 0 1 1.617 1.616v.211c-.023.89-.75 1.616-1.617 1.616Z"/><path fill="#F8C09D" d="M202.266 97.241c0 3.139-2.555 5.739-5.696 5.739h-.047c-3.14 0-5.742-2.6-5.742-5.739v-5.037h11.485v5.037Z"/><path fill="#F6AE8D" d="M190.781 95.93c2.227.96 4.547 1.475 6.774 1.475 1.547 0 3.14-.258 4.711-.726v-3.631h-11.485v2.881Z"/><path fill="#F8C09D" d="M197.555 94.781c-8.18 0-18-7.145-18-17.148V47.508h36.117V77.61c-.024 10.026-5.719 17.171-18.117 17.171Z"/><path fill="#333" d="M183.797 60.884h-8.508v9.136h8.508v-9.136Z"/><path fill="#F8C09D" d="M179.437 74.635a5.132 5.132 0 0 0 5.133-5.13 5.132 5.132 0 0 0-5.133-5.13 5.131 5.131 0 1 0 0 10.26Z"/><path fill="#EF937E" d="M178.406 70.23a1.83 1.83 0 0 1 1.828-1.826c.282 0 .539.07.774.164a1.83 1.83 0 0 0-3.399.937c0 .726.422 1.358 1.055 1.64a1.73 1.73 0 0 1-.258-.914Z"/><path fill="#333" d="M182.508 46.57v.094h-2.25c-2.742 0-4.969 2.18-4.969 4.896v-.046V64.28h8.508v-2.6c0-1.734 1.336-3.116 3.094-3.116h25.265c3.305 0 6-2.718 6-6.02V40.526h-29.601c-3.305-.024-6.047 2.74-6.047 6.044Z"/><path stroke="#EF937E" stroke-linecap="round" stroke-miterlimit="10" stroke-width="4.532" d="M199.547 78.336c0 3.186 2.601 5.787 5.789 5.787 3.187 0 5.789-2.6 5.789-5.787"/><path fill="#EF937E" d="M205.289 72.246v3.724c0 .164.211.305.375.305h2.203c.61 0 .938-.703.539-1.148l-2.554-3.045c-.165-.235-.563-.118-.563.164Z"/><path fill="#333" d="M197.344 72.175c.647 0 1.172-.923 1.172-2.061 0-1.139-.525-2.062-1.172-2.062-.647 0-1.172.923-1.172 2.062 0 1.138.525 2.061 1.172 2.061ZM212.227 72.175c.647 0 1.171-.923 1.171-2.061 0-1.139-.524-2.062-1.171-2.062-.648 0-1.172.923-1.172 2.062 0 1.138.524 2.061 1.172 2.061Z"/></svg>