<svg width="450" height="253" viewBox="0 0 450 253" fill="none" xmlns="http://www.w3.org/2000/svg">
<path d="M318.469 126.687C318.469 126.687 319.523 123.525 319.523 121.651C319.523 119.777 316.969 119.87 316.969 121.651C316.969 123.431 318.023 126.687 318.023 126.687C318.07 127.015 318.398 127.015 318.469 126.687Z" fill="#E6E6E6"/>
<path d="M318.234 104.175C318.586 104.175 318.867 103.894 318.867 103.543V101.481C318.867 101.13 318.586 100.849 318.234 100.849C317.883 100.849 317.602 101.13 317.602 101.481V103.543C317.602 103.894 317.883 104.175 318.234 104.175Z" fill="#666666"/>
<path d="M316.965 121.638L319.52 121.638L319.52 102.616L316.965 102.616L316.965 121.638Z" fill="#333333"/>
<path d="M319.5 104.62H316.148V113.499" stroke="#E6E6E6" stroke-width="3" stroke-miterlimit="10"/>
<path d="M318.141 114.248C318.445 114.248 318.703 113.991 318.703 113.686V106.939C318.703 106.635 318.445 106.377 318.141 106.377C317.836 106.377 317.578 106.635 317.578 106.939V113.686C317.602 114.014 317.836 114.248 318.141 114.248Z" fill="#666666"/>
<path d="M318.562 126.359C318.492 126.547 318.469 126.664 318.469 126.664C318.398 127.015 318.07 127.015 318 126.664C318 126.664 317.953 126.547 317.906 126.359H318.562Z" fill="#333333"/>
<path d="M327.633 96.6554H321.211V127.906H327.633V96.6554Z" fill="#BDCCD4"/>
<path d="M327.609 96.6554H325.617V127.906H327.609V96.6554Z" fill="#A8BDC6"/>
<path d="M322.055 98.4123H324.164" stroke="#7F99A5" stroke-miterlimit="10"/>
<path d="M322.055 107.361H324.164" stroke="#7F99A5" stroke-miterlimit="10"/>
<path d="M322.055 102.887H323.531" stroke="#7F99A5" stroke-miterlimit="10"/>
<path d="M322.055 99.3025H322.898" stroke="#7F99A5" stroke-miterlimit="10"/>
<path d="M322.055 100.193H322.898" stroke="#7F99A5" stroke-miterlimit="10"/>
<path d="M322.055 101.083H322.898" stroke="#7F99A5" stroke-miterlimit="10"/>
<path d="M322.055 101.996H322.898" stroke="#7F99A5" stroke-miterlimit="10"/>
<path d="M322.055 103.777H322.898" stroke="#7F99A5" stroke-miterlimit="10"/>
<path d="M322.055 104.667H322.898" stroke="#7F99A5" stroke-miterlimit="10"/>
<path d="M322.055 105.557H322.898" stroke="#7F99A5" stroke-miterlimit="10"/>
<path d="M322.055 106.471H322.898" stroke="#7F99A5" stroke-miterlimit="10"/>
<path d="M322.055 116.403H324.164" stroke="#7F99A5" stroke-miterlimit="10"/>
<path d="M322.055 111.929H323.531" stroke="#7F99A5" stroke-miterlimit="10"/>
<path d="M322.055 108.345H322.898" stroke="#7F99A5" stroke-miterlimit="10"/>
<path d="M322.055 109.235H322.898" stroke="#7F99A5" stroke-miterlimit="10"/>
<path d="M322.055 110.125H322.898" stroke="#7F99A5" stroke-miterlimit="10"/>
<path d="M322.055 111.039H322.898" stroke="#7F99A5" stroke-miterlimit="10"/>
<path d="M322.055 112.819H322.898" stroke="#7F99A5" stroke-miterlimit="10"/>
<path d="M322.055 113.709H322.898" stroke="#7F99A5" stroke-miterlimit="10"/>
<path d="M322.055 114.6H322.898" stroke="#7F99A5" stroke-miterlimit="10"/>
<path d="M322.055 115.513H322.898" stroke="#7F99A5" stroke-miterlimit="10"/>
<path d="M322.055 125.446H324.164" stroke="#7F99A5" stroke-miterlimit="10"/>
<path d="M322.055 120.971H323.531" stroke="#7F99A5" stroke-miterlimit="10"/>
<path d="M322.055 117.387H322.898" stroke="#7F99A5" stroke-miterlimit="10"/>
<path d="M322.055 118.277H322.898" stroke="#7F99A5" stroke-miterlimit="10"/>
<path d="M322.055 119.168H322.898" stroke="#7F99A5" stroke-miterlimit="10"/>
<path d="M322.055 120.081H322.898" stroke="#7F99A5" stroke-miterlimit="10"/>
<path d="M322.055 121.862H322.898" stroke="#7F99A5" stroke-miterlimit="10"/>
<path d="M322.055 122.752H322.898" stroke="#7F99A5" stroke-miterlimit="10"/>
<path d="M322.055 123.642H322.898" stroke="#7F99A5" stroke-miterlimit="10"/>
<path d="M322.055 124.556H322.898" stroke="#7F99A5" stroke-miterlimit="10"/>
<path d="M329.859 103.261H327.07V125.704H329.859V103.261Z" fill="#FFC06C"/>
<path d="M329.953 101.153H327.07V103.261H329.953V101.153Z" fill="#E6E6E6"/>
<path d="M329.953 101.153H327.07V100.216C327.07 99.7007 327.07 99.2791 327.656 99.2791H329.32C329.953 99.2791 329.953 99.7476 329.953 100.31V101.153Z" fill="#C1272D"/>
<path d="M328.5 129.311L327.07 125.704H329.953L328.5 129.311Z" fill="#FFF0B3"/>
<path d="M329.227 127.507H327.773L328.5 129.311L329.227 127.507Z" fill="#603813"/>
<path d="M331.242 135.613H313.828V114.857C313.828 114.201 314.367 113.663 315.023 113.663H330.047C330.703 113.663 331.242 114.201 331.242 114.857V135.613Z" fill="#999999"/>
<path d="M331.242 117.083H313.828V118.957H331.242V117.083Z" fill="#666666"/>
<path d="M331.242 121.37H313.828V123.244H331.242V121.37Z" fill="#666666"/>
<path d="M113.039 131.443L115.125 130.787L105.797 92.8135L137.016 71.2851L135.773 69.4813L103.242 91.9233L113.039 131.443Z" fill="#C13A3A"/>
<path d="M117.258 133.083L119.344 132.427L110.016 94.4533L141.234 72.9249L139.992 71.1211L107.461 93.5631L117.258 133.083Z" fill="#C13A3A"/>
<path d="M132.774 65.1241C131.32 67.4901 132.047 70.6057 134.414 72.0582L138.703 74.7053L144 66.1314L139.711 63.4843C137.344 62.0319 134.227 62.7581 132.774 65.1241Z" fill="#C13A3A"/>
<path d="M154.209 78.9809C155.412 77.0319 154.806 74.4773 152.856 73.2751C150.906 72.0728 148.35 72.6782 147.148 74.6272C145.945 76.5762 146.55 79.1308 148.5 80.333C150.45 81.5353 153.006 80.9299 154.209 78.9809Z" fill="#F2F2F2"/>
<path d="M144.469 89.1591L144.398 89.1122L138.703 74.7053L144 66.1314L159.352 64.8664L159.422 64.9132L144.469 89.1591Z" fill="#E24B4B"/>
<path d="M107.227 97.3113C109.595 97.3113 111.516 95.392 111.516 93.0243C111.516 90.6567 109.595 88.7374 107.227 88.7374C104.858 88.7374 102.938 90.6567 102.938 93.0243C102.938 95.392 104.858 97.3113 107.227 97.3113Z" fill="#E24B4B"/>
<path d="M107.227 94.9687C108.301 94.9687 109.172 94.0982 109.172 93.0244C109.172 91.9505 108.301 91.08 107.227 91.08C106.152 91.08 105.281 91.9505 105.281 93.0244C105.281 94.0982 106.152 94.9687 107.227 94.9687Z" fill="#C13A3A"/>
<path d="M106.523 135.613H125.648V133.879C125.648 131.724 123.914 129.99 121.758 129.99H110.414C108.258 129.99 106.523 131.724 106.523 133.879V135.613Z" fill="#E24B4B"/>
<path d="M147.937 130.623C145.5 130.623 143.531 128.632 143.531 126.219C143.531 123.783 145.523 121.815 147.937 121.815C150.375 121.815 152.344 123.806 152.344 126.219C152.367 128.632 150.375 130.623 147.937 130.623ZM147.937 123.642C146.531 123.642 145.383 124.79 145.383 126.195C145.383 127.601 146.531 128.749 147.937 128.749C149.344 128.749 150.492 127.601 150.492 126.195C150.492 124.79 149.367 123.642 147.937 123.642Z" fill="#BCA184"/>
<path d="M143.883 135.87H137.484C135.352 135.87 133.594 134.137 133.594 131.982V120.925C133.594 120.503 133.922 120.175 134.344 120.175H146.977C147.398 120.175 147.727 120.503 147.727 120.925V131.982C147.773 134.137 146.039 135.87 143.883 135.87Z" fill="#C7B299"/>
<path d="M147 120.175H144.328C144.75 120.175 145.078 120.503 145.078 120.925V131.982C145.078 134.113 143.367 135.87 141.211 135.87H143.883C146.016 135.87 147.891 134.137 147.891 131.982V120.925C147.891 120.503 147.422 120.175 147 120.175Z" fill="#BCA184"/>
<path d="M137.484 118.207C137.062 118.207 136.734 117.879 136.734 117.458V113.452C136.734 113.03 137.062 112.702 137.484 112.702C137.906 112.702 138.234 113.03 138.234 113.452V117.458C138.234 117.879 137.906 118.207 137.484 118.207Z" fill="#E6E6E6"/>
<path d="M140.859 118.207C140.438 118.207 140.109 117.879 140.109 117.458V109.821C140.109 109.399 140.438 109.071 140.859 109.071C141.281 109.071 141.609 109.399 141.609 109.821V117.458C141.586 117.879 141.258 118.207 140.859 118.207Z" fill="#E6E6E6"/>
<path d="M144.211 118.207C143.789 118.207 143.461 117.879 143.461 117.458V111.976C143.461 111.554 143.789 111.226 144.211 111.226C144.633 111.226 144.961 111.554 144.961 111.976V117.458C144.938 117.879 144.609 118.207 144.211 118.207Z" fill="#E6E6E6"/>
<path d="M215.297 163.7H172.805C170.25 163.7 168.188 161.639 168.188 159.085V140.462C168.188 137.908 170.25 135.847 172.805 135.847H215.297C217.852 135.847 219.914 137.908 219.914 140.462V159.085C219.891 161.639 217.828 163.7 215.297 163.7Z" fill="#E24B4B"/>
<path d="M215.297 129.428H172.805C170.25 129.428 168.188 127.367 168.188 124.813V106.19C168.188 103.636 170.25 101.575 172.805 101.575H215.297C217.852 101.575 219.914 103.636 219.914 106.19V124.813C219.891 127.367 217.828 129.428 215.297 129.428Z" fill="#E24B4B"/>
<path d="M199.594 166.254H188.484V170.26H199.594V166.254Z" fill="#333333"/>
<path d="M213.469 166.652H174.633C173.812 166.652 173.156 165.996 173.156 165.176C173.156 164.356 173.812 163.7 174.633 163.7H213.469C214.289 163.7 214.945 164.356 214.945 165.176C214.922 165.996 214.266 166.652 213.469 166.652Z" fill="#333333"/>
<path d="M196.734 170.26H191.32V187.525H196.734V170.26Z" fill="#CCCCCC"/>
<path d="M172.828 190.874V202.658H176.859V194.927C176.859 193.076 178.359 191.577 180.211 191.577H207.891C209.742 191.577 211.242 193.076 211.242 194.927V202.658H215.273V190.874C215.273 189.024 213.773 187.525 211.922 187.525H176.18C174.328 187.525 172.828 189.024 172.828 190.874Z" fill="#CCCCCC"/>
<path d="M199.594 183.519H188.484V187.525H199.594V183.519Z" fill="#333333"/>
<path d="M172.828 190.874V202.658H176.859V194.927C176.859 193.076 178.359 191.577 180.211 191.577H207.891C209.742 191.577 211.242 193.076 211.242 194.927V202.658H215.273V190.874C215.273 189.024 213.773 187.525 211.922 187.525H176.18C174.328 187.525 172.828 189.024 172.828 190.874Z" fill="#CCCCCC"/>
<path d="M183.375 190.874V202.658H187.406V194.927C187.406 193.076 188.906 191.577 190.758 191.577H197.344C199.195 191.577 200.695 193.076 200.695 194.927V202.658H204.727V190.874C204.727 189.024 203.227 187.525 201.375 187.525H186.75C184.875 187.525 183.375 189.024 183.375 190.874Z" fill="#CCCCCC"/>
<path d="M174.703 206.218C176.671 206.218 178.266 204.624 178.266 202.658C178.266 200.691 176.671 199.097 174.703 199.097C172.736 199.097 171.141 200.691 171.141 202.658C171.141 204.624 172.736 206.218 174.703 206.218Z" fill="#333333"/>
<path d="M185.555 206.218C187.522 206.218 189.117 204.624 189.117 202.658C189.117 200.691 187.522 199.097 185.555 199.097C183.587 199.097 181.992 200.691 181.992 202.658C181.992 204.624 183.587 206.218 185.555 206.218Z" fill="#333333"/>
<path d="M202.641 206.218C204.608 206.218 206.203 204.624 206.203 202.658C206.203 200.691 204.608 199.097 202.641 199.097C200.673 199.097 199.078 200.691 199.078 202.658C199.078 204.624 200.673 206.218 202.641 206.218Z" fill="#333333"/>
<path d="M213.492 206.218C215.46 206.218 217.055 204.624 217.055 202.658C217.055 200.691 215.46 199.097 213.492 199.097C211.525 199.097 209.93 200.691 209.93 202.658C209.93 204.624 211.525 206.218 213.492 206.218Z" fill="#333333"/>
<path d="M217.406 145.03H179.273V151.987H217.406V145.03Z" fill="#333333"/>
<path d="M184.758 96.3977H204.469C208.852 96.3977 212.414 99.9584 212.414 104.339V145.006H176.789V104.363C176.813 99.9584 180.352 96.3977 184.758 96.3977Z" fill="#F69B76"/>
<path d="M175.992 108.345L180.375 107.15C180.375 107.15 181.477 116.708 187.078 121.417C189.516 123.478 192.188 123.22 195.211 123.056C202.664 122.658 212.391 119.542 212.391 119.542L212.344 135.683L176.813 135.636L175.992 108.345Z" fill="#E88D6D"/>
<path d="M173.273 99.2557C173.273 99.2557 178.102 96.5148 184.758 96.3977C189 96.3274 178.266 102.887 178.266 102.887L173.273 99.2557Z" fill="#F69B76"/>
<path d="M204.797 96.5382C204.797 96.5382 213.328 95.8823 215.555 99.6305C217.57 102.98 211.383 104.854 211.383 104.854L204.797 96.5382Z" fill="#F69B76"/>
<path d="M230.18 197.012L227.789 206.148H247.922C247.922 206.148 247.219 201.931 242.555 201.112C237.914 200.268 233.977 202.915 233.977 202.915L234.211 197.012H230.18Z" fill="#754C24"/>
<path d="M210.961 197.012L208.57 206.148H228.703C228.703 206.148 228 201.931 223.336 201.112C218.695 200.268 214.758 202.915 214.758 202.915L214.992 197.012H210.961Z" fill="#754C24"/>
<path d="M229.172 149.809L198.516 146.599L196.453 153.299C195.68 155.853 197.086 158.547 199.641 159.32L227.414 161.124L226.5 197.691H237.399L238.711 160.468C238.336 155.15 238.969 152.315 232.641 150.301L229.172 149.809Z" fill="#333333"/>
<path d="M211.688 149.809L179.203 146.599L178.945 153.299C178.734 156.602 179.578 158.547 182.133 159.32L209.906 161.124L208.992 197.691H219.891L221.203 160.468C220.828 155.15 221.461 152.315 215.133 150.301L211.688 149.809Z" fill="#4D4D4D"/>
<path d="M343.852 143.367H106.617C104.484 143.367 102.75 141.633 102.75 139.501C102.75 137.37 104.484 135.636 106.617 135.636H343.875C346.008 135.636 347.742 137.37 347.742 139.501C347.719 141.657 345.984 143.367 343.852 143.367Z" fill="#8C6239"/>
<path d="M303.281 209.217H288.844V212.684H303.281V209.217Z" fill="#754C24"/>
<path d="M343.219 209.217H328.781V212.684H343.219V209.217Z" fill="#754C24"/>
<path d="M288.725 209.234H343.218V143.384H288.725V209.234Z" fill="#8C6239"/>
<path d="M121.031 209.217H106.594V212.684H121.031V209.217Z" fill="#754C24"/>
<path d="M160.969 209.217H146.531V212.684H160.969V209.217Z" fill="#754C24"/>
<path d="M106.486 209.234H160.978V143.384H106.486V209.234Z" fill="#8C6239"/>
<path d="M343.219 143.367H106.477V146.834H343.219V143.367Z" fill="#754C24"/>
<path d="M218.062 134.91C215.695 135.261 213.492 133.645 213.141 131.302L208.805 103.027C208.453 100.661 210.07 98.4592 212.414 98.1078C214.781 97.7564 216.844 100.685 217.594 104.128L221.672 129.99C222.047 132.356 220.43 134.559 218.062 134.91Z" fill="#F69B76"/>
<path d="M203.297 132.193C202.898 129.85 204.469 127.601 206.813 127.203L230.789 123.08L232.266 131.607L208.289 135.73C205.945 136.128 203.695 134.535 203.297 132.193Z" fill="#F69B76"/>
<path d="M232.055 130.623C232.055 130.623 234.094 130.623 236.719 131.021C239.344 131.419 239.648 131.466 240.469 131.466C241.289 131.466 241.922 129.873 239.883 129.405C237.844 128.936 238.289 128.561 239.344 128.608C240.422 128.655 241.57 128.936 242.742 130.037C243.914 131.138 245.461 131.56 245.602 130.318C245.742 129.077 244.57 128.608 244.57 128.608C244.57 128.608 246.023 128.866 246.07 127.788C246.117 126.711 244.898 125.657 244.172 125.165C244.172 125.165 244.617 123.947 243.141 123.572C241.688 123.174 239.25 122.119 237.586 121.909C235.922 121.721 231.117 125.118 231.117 125.118L232.055 130.623Z" fill="#F8C09D"/>
<path d="M180.281 135.613C177.914 135.964 175.711 134.348 175.359 132.005L171.023 103.73C170.672 101.364 172.289 99.1619 174.633 98.8106C177 98.4592 179.203 100.076 179.555 102.418L183.891 130.693C184.266 133.059 182.648 135.261 180.281 135.613Z" fill="#F69B76"/>
<path d="M176.039 132.193C175.641 129.85 177.211 127.601 179.555 127.203L203.531 123.08L205.008 131.607L181.031 135.73C178.688 136.128 176.438 134.535 176.039 132.193Z" fill="#F69B76"/>
<path d="M204.797 130.623C204.797 130.623 206.836 130.623 209.461 131.021C212.086 131.419 212.391 131.466 213.211 131.466C214.031 131.466 214.664 129.873 212.625 129.405C210.586 128.936 211.031 128.561 212.086 128.608C213.164 128.655 214.313 128.936 215.484 130.037C216.656 131.138 218.203 131.56 218.344 130.318C218.484 129.053 217.313 128.608 217.313 128.608C217.313 128.608 218.766 128.866 218.812 127.788C218.859 126.711 217.641 125.657 216.914 125.165C216.914 125.165 217.359 123.947 215.883 123.572C214.43 123.174 211.992 122.119 210.328 121.909C208.664 121.721 203.859 125.118 203.859 125.118L204.797 130.623Z" fill="#F8C09D"/>
<path d="M286.523 135.706H256.805C255.914 135.706 255.188 134.98 255.188 134.09V133.903C255.188 133.012 255.914 132.286 256.805 132.286H286.523C287.414 132.286 288.141 133.012 288.141 133.903V134.09C288.141 134.98 287.414 135.706 286.523 135.706Z" fill="#333333"/>
<path d="M305.93 124.696H237.375C236.32 124.696 235.477 123.853 235.477 122.799V81.0771C235.477 80.023 236.32 79.1796 237.375 79.1796H305.93C306.984 79.1796 307.828 80.023 307.828 81.0771V122.799C307.828 123.829 306.984 124.696 305.93 124.696Z" fill="#333333"/>
<path d="M237.656 124.579V82.8575C237.656 81.8033 238.523 81.0537 239.555 81.0537H307.969C307.922 80.1167 307.102 79.1796 306.07 79.1796H237.516C236.461 79.1796 235.523 80.023 235.523 81.0771V122.799C235.523 123.853 236.461 124.626 237.516 124.626H237.656C237.68 124.626 237.656 124.626 237.656 124.579Z" fill="#4D4D4D"/>
<path d="M279.844 115.958H263.508V132.286H279.844V115.958Z" fill="#4D4D4D"/>
<path d="M249.914 135.706H206.039C205.148 135.706 204.422 134.98 204.422 134.09V133.879C204.422 132.989 205.148 132.263 206.039 132.263H249.914C250.805 132.263 251.531 132.989 251.531 133.879V134.09C251.508 134.98 250.781 135.706 249.914 135.706Z" fill="#333333"/>
<path d="M202.266 97.241C202.266 100.38 199.711 102.98 196.57 102.98H196.523C193.383 102.98 190.781 100.38 190.781 97.241V92.2045H202.266V97.241Z" fill="#F8C09D"/>
<path d="M190.781 95.9292C193.008 96.8896 195.328 97.405 197.555 97.405C199.102 97.405 200.695 97.1473 202.266 96.6788V93.0478H190.781V95.9292Z" fill="#F6AE8D"/>
<path d="M197.555 94.7813C189.375 94.7813 179.555 87.6364 179.555 77.6335V47.5078H215.672V77.6101C215.648 87.6364 209.953 94.7813 197.555 94.7813Z" fill="#F8C09D"/>
<path d="M183.797 60.884H175.289V70.0201H183.797V60.884Z" fill="#333333"/>
<path d="M179.437 74.635C182.272 74.635 184.57 72.3381 184.57 69.5047C184.57 66.6714 182.272 64.3744 179.437 64.3744C176.603 64.3744 174.305 66.6714 174.305 69.5047C174.305 72.3381 176.603 74.635 179.437 74.635Z" fill="#F8C09D"/>
<path d="M178.406 70.2309C178.406 69.2236 179.227 68.4037 180.234 68.4037C180.516 68.4037 180.773 68.474 181.008 68.5677C180.68 68.0289 180.117 67.6775 179.437 67.6775C178.43 67.6775 177.609 68.4974 177.609 69.5047C177.609 70.2309 178.031 70.8634 178.664 71.1445C178.5 70.8869 178.406 70.5589 178.406 70.2309Z" fill="#EF937E"/>
<path d="M182.508 46.5707V46.6644H180.258C177.516 46.6644 175.289 48.8431 175.289 51.5605V51.5136V58.518V64.2807H183.797V61.6805C183.797 59.9469 185.133 58.5648 186.891 58.5648H212.156C215.461 58.5648 218.156 55.8474 218.156 52.5444V40.5269H188.555C185.25 40.5034 182.508 43.2677 182.508 46.5707Z" fill="#333333"/>
<path d="M199.547 78.3363C199.547 81.5222 202.148 84.1225 205.336 84.1225C208.523 84.1225 211.125 81.5222 211.125 78.3363" stroke="#EF937E" stroke-width="4.5315" stroke-miterlimit="10" stroke-linecap="round"/>
<path d="M205.289 72.2456V75.9703C205.289 76.1343 205.5 76.2748 205.664 76.2748H207.867C208.477 76.2748 208.805 75.572 208.406 75.1269L205.852 72.0816C205.687 71.8473 205.289 71.9644 205.289 72.2456Z" fill="#EF937E"/>
<path d="M197.344 72.1753C197.991 72.1753 198.516 71.2523 198.516 70.1138C198.516 68.9753 197.991 68.0523 197.344 68.0523C196.697 68.0523 196.172 68.9753 196.172 70.1138C196.172 71.2523 196.697 72.1753 197.344 72.1753Z" fill="#333333"/>
<path d="M212.227 72.1753C212.874 72.1753 213.398 71.2523 213.398 70.1138C213.398 68.9753 212.874 68.0523 212.227 68.0523C211.579 68.0523 211.055 68.9753 211.055 70.1138C211.055 71.2523 211.579 72.1753 212.227 72.1753Z" fill="#333333"/>
</svg>
